<svg width="333" height="295" viewBox="0 0 333 295" fill="none" xmlns="http://www.w3.org/2000/svg">
<path d="M315.068 156.149C310.932 156.149 307.578 152.796 307.578 148.66C307.578 133.616 296.984 121.831 283.461 121.831H165.101C160.965 121.831 157.61 118.476 157.61 114.34C157.61 110.205 160.965 106.851 165.101 106.851H283.461C305.384 106.851 322.557 125.216 322.557 148.66C322.557 152.796 319.205 156.149 315.068 156.149Z" fill="#FF0A54"/>
<path d="M147.8 105.63L124.768 92.4688L90.4849 57.9208L95.3129 53.0914C98.8396 49.5661 98.8396 43.8488 95.3129 40.3234L62.6342 7.64475C59.1089 4.11808 53.3916 4.11808 49.8663 7.64475L36.9263 20.5834C33.3996 24.1101 33.3996 29.8261 36.9263 33.3528L69.6049 66.0314C73.1316 69.5568 78.8476 69.5568 82.3742 66.0314L85.9102 62.4954L120.818 97.4048L134.966 118.791C135.625 119.778 136.284 120.107 137.27 120.107H137.6C138.586 120.107 139.245 119.778 139.902 119.121L148.458 110.566C149.116 109.907 149.445 108.921 149.445 107.934C149.445 106.946 148.786 105.959 147.8 105.63Z" fill="#FF0A54"/>
<path d="M17.7648 285.142C15.8448 285.142 14.1381 284.876 12.6448 284.342C11.1515 283.809 9.7248 282.929 8.3648 281.702C8.07147 281.489 7.8448 281.236 7.6848 280.942C7.55147 280.622 7.4848 280.302 7.4848 279.982C7.4848 279.476 7.67147 279.022 8.0448 278.622C8.41814 278.222 8.8848 278.022 9.4448 278.022C9.87147 278.022 10.2715 278.169 10.6448 278.462C11.6581 279.396 12.7115 280.102 13.8048 280.582C14.9248 281.062 16.2315 281.302 17.7248 281.302C18.7915 281.302 19.7648 281.129 20.6448 280.782C21.5515 280.436 22.2715 279.969 22.8048 279.382C23.3381 278.796 23.6048 278.116 23.6048 277.342C23.6048 276.382 23.3248 275.596 22.7648 274.982C22.2315 274.342 21.4448 273.822 20.4048 273.422C19.3915 272.996 18.1648 272.636 16.7248 272.342C15.3915 272.102 14.1915 271.769 13.1248 271.342C12.0848 270.916 11.1915 270.382 10.4448 269.742C9.69814 269.076 9.1248 268.289 8.7248 267.382C8.3248 266.476 8.1248 265.422 8.1248 264.222C8.1248 262.596 8.55147 261.196 9.4048 260.022C10.2581 258.849 11.4181 257.942 12.8848 257.302C14.3515 256.662 16.0048 256.342 17.8448 256.342C19.5248 256.342 21.0981 256.609 22.5648 257.142C24.0315 257.649 25.2181 258.342 26.1248 259.222C26.7648 259.782 27.0848 260.382 27.0848 261.022C27.0848 261.502 26.8848 261.956 26.4848 262.382C26.1115 262.782 25.6715 262.982 25.1648 262.982C24.7915 262.982 24.4715 262.876 24.2048 262.662C23.7781 262.209 23.2048 261.809 22.4848 261.462C21.7648 261.089 20.9915 260.782 20.1648 260.542C19.3648 260.302 18.5915 260.182 17.8448 260.182C16.6448 260.182 15.6181 260.356 14.7648 260.702C13.9115 261.022 13.2581 261.476 12.8048 262.062C12.3515 262.622 12.1248 263.289 12.1248 264.062C12.1248 264.969 12.3781 265.716 12.8848 266.302C13.4181 266.889 14.1515 267.369 15.0848 267.742C16.0181 268.089 17.0848 268.409 18.2848 268.702C19.7515 269.022 21.0581 269.382 22.2048 269.782C23.3781 270.182 24.3648 270.702 25.1648 271.342C25.9648 271.956 26.5781 272.729 27.0048 273.662C27.4315 274.596 27.6448 275.756 27.6448 277.142C27.6448 278.742 27.1915 280.142 26.2848 281.342C25.3781 282.542 24.1781 283.476 22.6848 284.142C21.2181 284.809 19.5781 285.142 17.7648 285.142ZM42.5632 261.942L33.5632 283.542C33.4032 283.969 33.1632 284.302 32.8432 284.542C32.5232 284.782 32.1632 284.902 31.7632 284.902C31.1766 284.902 30.7366 284.742 30.4432 284.422C30.1499 284.076 29.9899 283.649 29.9632 283.142C29.9632 282.956 30.0032 282.742 30.0832 282.502L40.2432 257.942C40.4299 257.489 40.6966 257.142 41.0432 256.902C41.4166 256.662 41.8166 256.556 42.2432 256.582C42.6432 256.582 43.0166 256.702 43.3632 256.942C43.7099 257.182 43.9632 257.516 44.1232 257.942L54.1632 282.142C54.2699 282.409 54.3232 282.676 54.3232 282.942C54.3232 283.529 54.1232 284.009 53.7232 284.382C53.3499 284.729 52.9232 284.902 52.4432 284.902C52.0432 284.902 51.6699 284.782 51.3232 284.542C51.0032 284.276 50.7632 283.942 50.6032 283.542L41.5232 262.062L42.5632 261.942ZM35.1632 277.862L36.9632 274.022H48.2832L48.9632 277.862H35.1632ZM73.7073 280.822C74.2673 280.822 74.734 281.009 75.1073 281.382C75.5073 281.756 75.7073 282.222 75.7073 282.782C75.7073 283.342 75.5073 283.809 75.1073 284.182C74.734 284.556 74.2673 284.742 73.7073 284.742H60.2673C59.6806 284.742 59.1873 284.556 58.7873 284.182C58.414 283.782 58.2273 283.289 58.2273 282.702V258.782C58.2273 258.196 58.4273 257.716 58.8273 257.342C59.2273 256.942 59.7473 256.742 60.3873 256.742C60.9206 256.742 61.3873 256.942 61.7873 257.342C62.214 257.716 62.4273 258.196 62.4273 258.782V281.502L61.5873 280.822H73.7073ZM105.818 270.742C105.818 272.769 105.484 274.662 104.818 276.422C104.151 278.156 103.204 279.676 101.978 280.982C100.778 282.289 99.351 283.316 97.6976 284.062C96.0443 284.782 94.231 285.142 92.2576 285.142C90.311 285.142 88.511 284.782 86.8576 284.062C85.2043 283.316 83.7643 282.289 82.5376 280.982C81.3376 279.676 80.4043 278.156 79.7376 276.422C79.0976 274.662 78.7776 272.769 78.7776 270.742C78.7776 268.716 79.0976 266.836 79.7376 265.102C80.4043 263.342 81.3376 261.809 82.5376 260.502C83.7643 259.196 85.2043 258.182 86.8576 257.462C88.511 256.716 90.311 256.342 92.2576 256.342C94.231 256.342 96.0443 256.716 97.6976 257.462C99.351 258.182 100.778 259.196 101.978 260.502C103.204 261.809 104.151 263.342 104.818 265.102C105.484 266.836 105.818 268.716 105.818 270.742ZM101.498 270.742C101.498 268.769 101.098 266.996 100.298 265.422C99.5243 263.849 98.4443 262.609 97.0576 261.702C95.671 260.796 94.071 260.342 92.2576 260.342C90.471 260.342 88.8843 260.796 87.4976 261.702C86.111 262.609 85.031 263.849 84.2576 265.422C83.4843 266.969 83.0976 268.742 83.0976 270.742C83.0976 272.716 83.4843 274.489 84.2576 276.062C85.031 277.636 86.111 278.876 87.4976 279.782C88.8843 280.689 90.471 281.142 92.2576 281.142C94.071 281.142 95.671 280.689 97.0576 279.782C98.4443 278.876 99.5243 277.636 100.298 276.062C101.098 274.489 101.498 272.716 101.498 270.742ZM92.3776 255.102C91.951 255.102 91.6043 254.996 91.3376 254.782C91.0976 254.542 90.9776 254.249 90.9776 253.902C90.9776 253.742 91.0176 253.582 91.0976 253.422C91.2043 253.262 91.3376 253.102 91.4976 252.942L94.9776 250.022C95.2176 249.809 95.4843 249.636 95.7776 249.502C96.071 249.342 96.3643 249.262 96.6576 249.262C97.0843 249.262 97.4976 249.422 97.8976 249.742C98.2976 250.036 98.4976 250.449 98.4976 250.982C98.4976 251.329 98.391 251.676 98.1776 252.022C97.9643 252.342 97.6576 252.609 97.2576 252.822L93.2576 254.862C93.1243 254.969 92.9776 255.036 92.8176 255.062C92.6576 255.089 92.511 255.102 92.3776 255.102ZM131.727 256.742C132.261 256.742 132.687 256.929 133.007 257.302C133.354 257.649 133.527 258.089 133.527 258.622V282.702C133.527 283.289 133.327 283.782 132.927 284.182C132.554 284.556 132.074 284.742 131.487 284.742C131.221 284.742 130.927 284.689 130.607 284.582C130.314 284.476 130.087 284.329 129.927 284.142L113.487 262.822L114.407 262.302V282.902C114.407 283.409 114.234 283.849 113.887 284.222C113.541 284.569 113.101 284.742 112.567 284.742C112.007 284.742 111.554 284.569 111.207 284.222C110.887 283.849 110.727 283.409 110.727 282.902V258.782C110.727 258.169 110.927 257.676 111.327 257.302C111.727 256.929 112.207 256.742 112.767 256.742C113.061 256.742 113.367 256.809 113.687 256.942C114.034 257.049 114.287 257.222 114.447 257.462L130.487 278.342L129.887 278.902V258.622C129.887 258.089 130.061 257.649 130.407 257.302C130.754 256.929 131.194 256.742 131.727 256.742ZM162.996 256.742C164.943 256.742 166.663 257.116 168.156 257.862C169.649 258.582 170.889 259.596 171.876 260.902C172.889 262.182 173.649 263.676 174.156 265.382C174.663 267.062 174.916 268.849 174.916 270.742C174.916 273.329 174.463 275.689 173.556 277.822C172.649 279.929 171.316 281.609 169.556 282.862C167.796 284.116 165.609 284.742 162.996 284.742H153.236C152.676 284.742 152.196 284.556 151.796 284.182C151.396 283.782 151.196 283.289 151.196 282.702V258.782C151.196 258.196 151.396 257.716 151.796 257.342C152.196 256.942 152.676 256.742 153.236 256.742H162.996ZM162.596 280.902C164.489 280.902 166.023 280.436 167.196 279.502C168.369 278.569 169.223 277.342 169.756 275.822C170.316 274.276 170.596 272.582 170.596 270.742C170.596 269.382 170.436 268.102 170.116 266.902C169.823 265.676 169.343 264.596 168.676 263.662C168.036 262.702 167.209 261.956 166.196 261.422C165.209 260.862 164.009 260.582 162.596 260.582H155.036L155.396 260.222V281.302L155.156 280.902H162.596ZM181.869 256.742H195.709C196.269 256.742 196.736 256.929 197.109 257.302C197.509 257.676 197.709 258.142 197.709 258.702C197.709 259.262 197.509 259.716 197.109 260.062C196.736 260.409 196.269 260.582 195.709 260.582H183.629L184.029 259.902V268.862L183.669 268.462H193.909C194.469 268.462 194.936 268.649 195.309 269.022C195.709 269.396 195.909 269.876 195.909 270.462C195.909 271.022 195.709 271.476 195.309 271.822C194.936 272.169 194.469 272.342 193.909 272.342H183.749L184.029 271.982V281.222L183.749 280.902H195.709C196.269 280.902 196.736 281.102 197.109 281.502C197.509 281.876 197.709 282.316 197.709 282.822C197.709 283.382 197.509 283.849 197.109 284.222C196.736 284.569 196.269 284.742 195.709 284.742H181.869C181.309 284.742 180.829 284.556 180.429 284.182C180.029 283.782 179.829 283.289 179.829 282.702V258.782C179.829 258.196 180.029 257.716 180.429 257.342C180.829 256.942 181.309 256.742 181.869 256.742ZM233.693 256.702C234.28 256.702 234.747 256.902 235.093 257.302C235.44 257.676 235.613 258.156 235.613 258.742V273.902C235.613 276.036 235.147 277.942 234.213 279.622C233.28 281.302 232 282.622 230.373 283.582C228.747 284.516 226.867 284.982 224.733 284.982C222.627 284.982 220.747 284.516 219.093 283.582C217.467 282.622 216.173 281.302 215.213 279.622C214.28 277.942 213.813 276.036 213.813 273.902V258.742C213.813 258.156 214.013 257.676 214.413 257.302C214.813 256.902 215.333 256.702 215.973 256.702C216.48 256.702 216.933 256.902 217.333 257.302C217.76 257.676 217.973 258.156 217.973 258.742V273.902C217.973 275.316 218.28 276.556 218.893 277.622C219.533 278.662 220.373 279.489 221.413 280.102C222.453 280.689 223.56 280.982 224.733 280.982C226.013 280.982 227.187 280.689 228.253 280.102C229.32 279.489 230.173 278.662 230.813 277.622C231.48 276.556 231.813 275.316 231.813 273.902V258.742C231.813 258.156 231.973 257.676 232.293 257.302C232.64 256.902 233.107 256.702 233.693 256.702ZM263.134 256.742C263.667 256.742 264.094 256.929 264.414 257.302C264.76 257.649 264.934 258.089 264.934 258.622V282.702C264.934 283.289 264.734 283.782 264.334 284.182C263.96 284.556 263.48 284.742 262.894 284.742C262.627 284.742 262.334 284.689 262.014 284.582C261.72 284.476 261.494 284.329 261.334 284.142L244.894 262.822L245.814 262.302V282.902C245.814 283.409 245.64 283.849 245.294 284.222C244.947 284.569 244.507 284.742 243.974 284.742C243.414 284.742 242.96 284.569 242.614 284.222C242.294 283.849 242.134 283.409 242.134 282.902V258.782C242.134 258.169 242.334 257.676 242.734 257.302C243.134 256.929 243.614 256.742 244.174 256.742C244.467 256.742 244.774 256.809 245.094 256.942C245.44 257.049 245.694 257.222 245.854 257.462L261.894 278.342L261.294 278.902V258.622C261.294 258.089 261.467 257.649 261.814 257.302C262.16 256.929 262.6 256.742 263.134 256.742ZM248.254 254.822C247.747 254.822 247.32 254.609 246.974 254.182C246.627 253.729 246.467 253.116 246.494 252.342C246.547 251.489 246.934 250.742 247.654 250.102C248.374 249.436 249.36 249.102 250.614 249.102C251.44 249.102 252.214 249.316 252.934 249.742C253.68 250.142 254.374 250.542 255.014 250.942C255.654 251.342 256.214 251.542 256.694 251.542C257.014 251.542 257.267 251.449 257.454 251.262C257.64 251.049 257.707 250.782 257.654 250.462C257.52 249.956 257.587 249.556 257.854 249.262C258.147 248.969 258.494 248.822 258.894 248.822C259.427 248.822 259.867 249.049 260.214 249.502C260.56 249.929 260.72 250.502 260.694 251.222C260.667 251.729 260.507 252.236 260.214 252.742C259.947 253.249 259.547 253.689 259.014 254.062C258.507 254.409 257.854 254.582 257.054 254.582C256.2 254.582 255.36 254.382 254.534 253.982C253.734 253.556 252.987 253.142 252.294 252.742C251.6 252.342 251.014 252.142 250.534 252.142C250.24 252.142 249.987 252.236 249.774 252.422C249.56 252.609 249.467 252.876 249.494 253.222C249.627 253.702 249.547 254.089 249.254 254.382C248.987 254.676 248.654 254.822 248.254 254.822ZM281.469 261.942L272.469 283.542C272.309 283.969 272.069 284.302 271.749 284.542C271.429 284.782 271.069 284.902 270.669 284.902C270.083 284.902 269.643 284.742 269.349 284.422C269.056 284.076 268.896 283.649 268.869 283.142C268.869 282.956 268.909 282.742 268.989 282.502L279.149 257.942C279.336 257.489 279.603 257.142 279.949 256.902C280.323 256.662 280.723 256.556 281.149 256.582C281.549 256.582 281.923 256.702 282.269 256.942C282.616 257.182 282.869 257.516 283.029 257.942L293.069 282.142C293.176 282.409 293.229 282.676 293.229 282.942C293.229 283.529 293.029 284.009 292.629 284.382C292.256 284.729 291.829 284.902 291.349 284.902C290.949 284.902 290.576 284.782 290.229 284.542C289.909 284.276 289.669 283.942 289.509 283.542L280.429 262.062L281.469 261.942ZM274.069 277.862L275.869 274.022H287.189L287.869 277.862H274.069ZM305.734 285.142C303.814 285.142 302.107 284.876 300.614 284.342C299.12 283.809 297.694 282.929 296.334 281.702C296.04 281.489 295.814 281.236 295.654 280.942C295.52 280.622 295.454 280.302 295.454 279.982C295.454 279.476 295.64 279.022 296.014 278.622C296.387 278.222 296.854 278.022 297.414 278.022C297.84 278.022 298.24 278.169 298.614 278.462C299.627 279.396 300.68 280.102 301.774 280.582C302.894 281.062 304.2 281.302 305.694 281.302C306.76 281.302 307.734 281.129 308.614 280.782C309.52 280.436 310.24 279.969 310.774 279.382C311.307 278.796 311.574 278.116 311.574 277.342C311.574 276.382 311.294 275.596 310.734 274.982C310.2 274.342 309.414 273.822 308.374 273.422C307.36 272.996 306.134 272.636 304.694 272.342C303.36 272.102 302.16 271.769 301.094 271.342C300.054 270.916 299.16 270.382 298.414 269.742C297.667 269.076 297.094 268.289 296.694 267.382C296.294 266.476 296.094 265.422 296.094 264.222C296.094 262.596 296.52 261.196 297.374 260.022C298.227 258.849 299.387 257.942 300.854 257.302C302.32 256.662 303.974 256.342 305.814 256.342C307.494 256.342 309.067 256.609 310.534 257.142C312 257.649 313.187 258.342 314.094 259.222C314.734 259.782 315.054 260.382 315.054 261.022C315.054 261.502 314.854 261.956 314.454 262.382C314.08 262.782 313.64 262.982 313.134 262.982C312.76 262.982 312.44 262.876 312.174 262.662C311.747 262.209 311.174 261.809 310.454 261.462C309.734 261.089 308.96 260.782 308.134 260.542C307.334 260.302 306.56 260.182 305.814 260.182C304.614 260.182 303.587 260.356 302.734 260.702C301.88 261.022 301.227 261.476 300.774 262.062C300.32 262.622 300.094 263.289 300.094 264.062C300.094 264.969 300.347 265.716 300.854 266.302C301.387 266.889 302.12 267.369 303.054 267.742C303.987 268.089 305.054 268.409 306.254 268.702C307.72 269.022 309.027 269.382 310.174 269.782C311.347 270.182 312.334 270.702 313.134 271.342C313.934 271.956 314.547 272.729 314.974 273.662C315.4 274.596 315.614 275.756 315.614 277.142C315.614 278.742 315.16 280.142 314.254 281.342C313.347 282.542 312.147 283.476 310.654 284.142C309.187 284.809 307.547 285.142 305.734 285.142Z" fill="#B388EB"/>
<path d="M61.4667 216.319C63.7778 216.319 65.6889 217.075 67.2 218.586C68.8 220.008 69.6 221.875 69.6 224.186C69.6 226.408 68.8 228.275 67.2 229.786C65.6889 231.208 63.7778 231.919 61.4667 231.919H18.1333C15.8222 231.919 13.8667 231.164 12.2667 229.653C10.7556 228.053 10 226.097 10 223.786V146.719C10 144.408 10.8 142.497 12.4 140.986C14 139.386 16.0444 138.586 18.5333 138.586C20.6667 138.586 22.5333 139.386 24.1333 140.986C25.8222 142.497 26.6667 144.408 26.6667 146.719V218.586L23.7333 216.319H61.4667ZM148.532 138.453C150.843 138.453 152.71 139.253 154.132 140.853C155.555 142.364 156.266 144.275 156.266 146.586V194.853C156.266 202.231 154.666 208.764 151.466 214.453C148.355 220.142 144.043 224.586 138.532 227.786C133.021 230.986 126.621 232.586 119.332 232.586C112.043 232.586 105.599 230.986 99.999 227.786C94.4878 224.586 90.1323 220.142 86.9323 214.453C83.8212 208.764 82.2656 202.231 82.2656 194.853V146.586C82.2656 144.275 83.0656 142.364 84.6656 140.853C86.2656 139.253 88.3101 138.453 90.799 138.453C92.8434 138.453 94.6656 139.253 96.2656 140.853C97.9545 142.364 98.799 144.275 98.799 146.586V194.853C98.799 199.297 99.7323 203.164 101.599 206.453C103.555 209.653 106.088 212.142 109.199 213.919C112.399 215.697 115.777 216.586 119.332 216.586C123.155 216.586 126.71 215.697 129.999 213.919C133.288 212.142 135.955 209.653 137.999 206.453C140.043 203.164 141.066 199.297 141.066 194.853V146.586C141.066 144.275 141.732 142.364 143.066 140.853C144.399 139.253 146.221 138.453 148.532 138.453ZM227.743 216.319C230.054 216.319 231.965 217.075 233.476 218.586C235.076 220.008 235.876 221.875 235.876 224.186C235.876 226.408 235.076 228.275 233.476 229.786C231.965 231.208 230.054 231.919 227.743 231.919H184.409C182.098 231.919 180.143 231.164 178.543 229.653C177.032 228.053 176.276 226.097 176.276 223.786V146.719C176.276 144.408 177.076 142.497 178.676 140.986C180.276 139.386 182.32 138.586 184.809 138.586C186.943 138.586 188.809 139.386 190.409 140.986C192.098 142.497 192.943 144.408 192.943 146.719V218.586L190.009 216.319H227.743ZM314.808 138.453C317.119 138.453 318.986 139.253 320.408 140.853C321.831 142.364 322.542 144.275 322.542 146.586V194.853C322.542 202.231 320.942 208.764 317.742 214.453C314.631 220.142 310.319 224.586 304.808 227.786C299.297 230.986 292.897 232.586 285.608 232.586C278.319 232.586 271.875 230.986 266.275 227.786C260.764 224.586 256.408 220.142 253.208 214.453C250.097 208.764 248.542 202.231 248.542 194.853V146.586C248.542 144.275 249.342 142.364 250.942 140.853C252.542 139.253 254.586 138.453 257.075 138.453C259.119 138.453 260.942 139.253 262.542 140.853C264.231 142.364 265.075 144.275 265.075 146.586V194.853C265.075 199.297 266.008 203.164 267.875 206.453C269.831 209.653 272.364 212.142 275.475 213.919C278.675 215.697 282.053 216.586 285.608 216.586C289.431 216.586 292.986 215.697 296.275 213.919C299.564 212.142 302.231 209.653 304.275 206.453C306.319 203.164 307.342 199.297 307.342 194.853V146.586C307.342 144.275 308.008 142.364 309.342 140.853C310.675 139.253 312.497 138.453 314.808 138.453Z" fill="#FF0A54"/>
</svg>
